<svg width="390" height="730" viewBox="0 0 390 730" fill="none" xmlns="http://www.w3.org/2000/svg">
<g clip-path="url(#clip0_291_1642)">
<path d="M0 730L0.169 334.082L390.119 332.542V729.576L0 730Z" fill="#BDC0C5"/>
<path d="M98.5942 225.068L268.892 225.721L295.688 285.775L98.4927 285.879L98.5942 225.068Z" fill="#5647B3" stroke="#38018D" stroke-width="1.66668" stroke-miterlimit="10" stroke-linecap="round" stroke-linejoin="round"/>
<path d="M-0.579102 432.461L-0.000168264 258.131H389.421V432.461H-0.579102Z" fill="#78AA87"/>
<path d="M0.90397 269.753H390.328C390.328 269.753 -0.0168703 269.436 0.90397 269.753ZM260.436 281.316H282.681V303.188H260.436V281.316ZM303.38 278.037H316.776V309.889H303.38V278.037ZM332.241 279.969H350.658V306.759H332.241V279.969Z" stroke="#2D1660" stroke-width="1.66668" stroke-miterlimit="10" stroke-linecap="round" stroke-linejoin="round"/>
<path d="M265.361 351.39H354.557V423.578H265.361V351.39Z" fill="#411178" stroke="#2D1660" stroke-width="1.66668" stroke-miterlimit="10" stroke-linecap="round" stroke-linejoin="round"/>
<path d="M271.969 360.612H345.224V413.847H271.969V360.612Z" fill="#6AABDB" stroke="#2D1660" stroke-width="1.66668" stroke-miterlimit="10" stroke-linecap="round" stroke-linejoin="round"/>
<path d="M272.203 367.961L345.224 367.227M272.535 377.668L344.926 376.851M272.362 386.447L344.923 386.565M345.224 396.705H272.203M344.926 405.994L272.366 405.716M281.476 360.668L282.082 413.804M293.257 413.847L292.635 360.804M305.591 360.932L306.495 413.847M320.31 413.804L319.647 360.568M333.524 413.843L333.341 360.932" stroke="#2D1660" stroke-width="1.66668" stroke-miterlimit="10" stroke-linecap="round" stroke-linejoin="round"/>
<path d="M259.48 348.096L362.862 347.591L348.985 331.818L271.414 331.076L259.48 348.096Z" fill="#6AABDB" stroke="#2D1660" stroke-width="1.66668" stroke-miterlimit="10" stroke-linecap="round" stroke-linejoin="round"/>
<path d="M389.424 432.464H-0.579102M0.903632 258.133H389.844" stroke="#2D1660" stroke-width="1.66668" stroke-miterlimit="10" stroke-linecap="round" stroke-linejoin="round"/>
<path d="M-8.94666e-05 122.725L170.298 123.374L197.09 183.429L-0.101562 183.532" fill="#E85ADC"/>
<path d="M-8.94632e-05 122.725L170.298 123.374L197.09 183.429L-0.101562 183.532" stroke="#8C0165" stroke-width="1.66668" stroke-miterlimit="10" stroke-linecap="round" stroke-linejoin="round"/>
<path d="M-0.101562 183.532H181.443V419.29L-0.0947013 419.742" fill="#CF026F"/>
<path d="M-0.101562 183.532H181.443V419.29L-0.0947013 419.742" stroke="#7A018C" stroke-width="1.66668" stroke-miterlimit="10" stroke-linecap="round" stroke-linejoin="round"/>
<path d="M15.4438 210.962H47.9577V257.09H15.4438V210.962ZM71.4019 210.962H103.915V257.09H71.4019V210.962ZM72.0961 276.609H104.609V322.736H72.0952L72.0961 276.609ZM15.4438 275.279H47.9577V321.406H15.4438V275.279ZM128.128 210.962H160.645V257.09H128.128V210.962ZM127.346 276.609H159.859V322.736H127.345L127.346 276.609Z" fill="#F6D1D9"/>
<path d="M-0.101562 252.811C-0.101562 252.811 56.4182 256.532 74.1716 262.777C81.8533 265.479 86.1462 274.886 91.5087 297.142C96.539 318.005 102.058 361.171 102.058 361.171L111.296 361.773C111.296 361.773 100.693 290.384 95.1477 276.91C95.1477 276.91 113.748 302.542 153.675 326.859C170.044 336.829 222.434 360.052 222.434 360.052L215.984 434.172L225.406 438.745C225.406 438.745 230.389 373.376 233.68 365.395L295.959 392.603C295.959 392.603 283.264 428.076 283.264 458.093C283.264 484.106 286.303 521.851 286.303 521.851L293.461 519.366C293.461 519.366 285.264 493.82 289.526 455.473C293.792 417.13 305.455 397.789 305.455 397.789C305.455 397.789 334.603 411.345 348.887 430.896C363.17 450.45 362.341 470.219 357.056 479.234C351.768 488.248 336.862 495.727 327.125 483.497C317.389 471.264 329.062 457.847 329.062 457.847C329.062 457.847 325.754 476.396 342.718 472.625C353.813 470.159 350.156 443.642 337.062 443.642C324.948 443.642 312.51 448.839 315.124 474.789C317.25 495.937 334.116 502.571 345.434 499.405C356.751 496.236 370.973 486.734 369.751 461.322C368.533 435.908 356.66 414.938 319.041 391.715C289.831 373.686 202.009 341.727 144.179 303.405C106.252 278.272 101.218 259.911 80.6717 249.392C66.2293 241.996 -0.0950625 237.202 -0.0950625 237.202" fill="#FCA62E"/>
<path d="M-0.101562 252.811C-0.101562 252.811 56.4182 256.532 74.1716 262.777C81.8533 265.479 86.1462 274.886 91.5087 297.142C96.539 318.005 102.058 361.171 102.058 361.171L111.296 361.773C111.296 361.773 100.693 290.384 95.1477 276.91C95.1477 276.91 113.748 302.542 153.675 326.859C170.044 336.829 222.434 360.052 222.434 360.052L215.984 434.172L225.406 438.745C225.406 438.745 230.389 373.376 233.68 365.395L295.959 392.603C295.959 392.603 283.264 428.076 283.264 458.093C283.264 484.106 286.303 521.851 286.303 521.851L293.461 519.366C293.461 519.366 285.264 493.82 289.526 455.473C293.792 417.13 305.455 397.789 305.455 397.789C305.455 397.789 334.603 411.345 348.887 430.896C363.17 450.45 362.341 470.219 357.056 479.234C351.768 488.248 336.862 495.727 327.125 483.497C317.389 471.264 329.062 457.847 329.062 457.847C329.062 457.847 325.754 476.396 342.718 472.625C353.813 470.159 350.156 443.642 337.062 443.642C324.948 443.642 312.51 448.839 315.124 474.789C317.25 495.937 334.116 502.571 345.434 499.405C356.751 496.236 370.973 486.734 369.751 461.322C368.533 435.908 356.66 414.938 319.041 391.715C289.831 373.686 202.009 341.727 144.179 303.405C106.252 278.272 101.218 259.911 80.6717 249.392C66.2293 241.996 -0.0950625 237.202 -0.0950625 237.202" stroke="#804B30" stroke-width="1.66668" stroke-miterlimit="10" stroke-linecap="round" stroke-linejoin="round"/>
<path d="M355.012 516.372L348.075 585.804L106.708 730H0L0.169 712.174L355.012 516.372ZM390 626.895V694.633L337.62 729.719L230.516 730L390 626.895Z" fill="#F0A74C"/>
<path d="M0 632.495L265.857 499.169L355.011 516.372L0.169867 712.174L0 632.495ZM101.549 730L348.464 584.46L390 589.871V626.895L231.214 730H101.549Z" fill="#F9CA96"/>
<path d="M0 559.729V632.495L265.857 499.169L266.253 437.961L0 559.729Z" fill="#F0A74C"/>
<path d="M0.168945 489.728L0.646479 559.705L266.805 437.961L182.63 418.819L0.168945 489.728Z" fill="#F6CB97"/>
<path d="M-0.101562 413.744L-0.000162493 491.213L182.63 418.819L187.125 348.257L-0.101562 413.744Z" fill="#F0A74C"/>
<path d="M0.168838 334.082L-0.101562 413.744L187.125 348.257L0.168838 334.082Z" fill="#F6CC91"/>
<path d="M390 694.633L390.119 729.576L337.621 729.718L390 694.633Z" fill="#F9CA96"/>
<path d="M285.647 668.244C285.647 668.244 294.476 648.561 306.037 643.35L310.418 646.397C310.418 646.397 290.312 661.322 285.647 668.244Z" fill="#D9805A" stroke="#97451D" stroke-width="1.66668" stroke-miterlimit="10" stroke-linecap="round" stroke-linejoin="round"/>
<path d="M288.786 662.71C288.282 662.813 287.845 644.399 287.845 644.399C287.845 644.399 285.668 651.996 280.248 646.92C274.828 641.841 274.727 639.681 274.727 639.681C274.727 639.681 274.249 645.366 259.939 642.122C259.939 642.122 262.525 649.718 262.525 652.363C262.525 652.363 258.222 653.767 249.546 650.897C249.546 650.897 250.806 654.352 248.771 656.91C246.732 659.474 241.722 660.083 241.722 660.083C241.722 660.083 241.837 665.433 236.799 666.674C236.799 666.674 241.997 668.705 242.155 673.492C242.226 675.671 250.037 672.527 247.965 681.06C247.796 681.751 252.664 675.121 260.758 677.139C262.85 677.659 252.285 689.433 248.456 692.345C247.67 692.941 255.832 692.976 251.692 706.742C251.435 707.591 258.73 701.623 261.225 705.434C261.716 706.185 265.86 699.702 270.052 706.104C270.631 706.991 277.219 699.605 277.699 710.845C277.699 710.845 283.129 710.407 283.129 719.524C283.129 719.524 286.366 708.025 294.122 715.037C294.122 715.037 292.138 698.925 304.071 705.373C304.071 705.373 300.023 692.552 303.95 688.994C307.88 685.437 319.8 691.347 319.8 691.347C319.8 691.347 307.958 673.814 313.784 672.544C313.784 672.544 300.75 669.265 301.755 666.963C302.758 664.657 306.452 664.204 306.452 664.204C306.452 664.204 294.017 661.637 288.786 662.71Z" fill="#F4AB4E"/>
<path d="M248.278 680.299L260.839 664.73L250.208 651.701M260.839 643.239L288.789 662.716L319.119 690.993" stroke="#97451D" stroke-width="1.66668" stroke-miterlimit="10" stroke-linecap="round" stroke-linejoin="round"/>
<path d="M275.393 641.247L288.89 663.639C288.89 663.639 289.781 693.049 283.172 717.58" stroke="#97451D" stroke-width="1.66668" stroke-miterlimit="10" stroke-linecap="round" stroke-linejoin="round"/>
<path d="M252.074 705.358L289.977 662.541C289.977 662.541 264.109 666.241 237.797 666.241" stroke="#97451D" stroke-width="1.66668" stroke-miterlimit="10" stroke-linecap="round" stroke-linejoin="round"/>
<path d="M262.951 651.84L278.595 664.458L261.58 677.722M249.626 692.511L267.778 687.286L261.597 704.965" stroke="#97451D" stroke-width="1.66668" stroke-miterlimit="10" stroke-linecap="round" stroke-linejoin="round"/>
<path d="M261.255 678.388L277.996 676.3L270.48 705.618M278.111 710.875L286.002 701.704L294.094 714.044" stroke="#97451D" stroke-width="1.66668" stroke-miterlimit="10" stroke-linecap="round" stroke-linejoin="round"/>
<path d="M271.76 704.965L288.027 686.522L304.118 704.63M303.173 689.068L303.518 677.002L312.189 677.775" stroke="#97451D" stroke-width="1.66668" stroke-miterlimit="10" stroke-linecap="round" stroke-linejoin="round"/>
<path d="M312.835 673.056L295.827 669.944L301.603 692.536M275.393 689.068L288.836 673.791L298.058 680.495" stroke="#97451D" stroke-width="1.66668" stroke-miterlimit="10" stroke-linecap="round" stroke-linejoin="round"/>
<path d="M288.788 662.716C288.284 662.819 287.847 644.405 287.847 644.405C287.847 644.405 285.67 652.001 280.25 646.925C274.83 641.846 274.729 639.686 274.729 639.686C274.729 639.686 274.251 645.371 259.941 642.127C259.941 642.127 262.528 649.723 262.528 652.368C262.528 652.368 258.224 653.772 249.548 650.903C249.548 650.903 250.807 654.357 248.772 656.916C246.734 659.479 241.724 660.088 241.724 660.088C241.724 660.088 241.839 665.439 236.802 666.679C236.802 666.679 241.998 668.711 242.157 673.498C242.228 675.676 250.038 672.532 247.967 681.065C247.797 681.757 252.665 675.127 260.76 677.145C262.853 677.665 252.286 689.438 248.457 692.351C247.672 692.946 255.834 692.982 251.694 706.748C251.437 707.596 258.732 701.629 261.227 705.44C261.719 706.192 265.862 699.708 270.053 706.11C270.632 706.997 277.22 699.612 277.701 710.85C277.701 710.85 283.131 710.412 283.131 719.53C283.131 719.53 286.368 708.031 294.124 715.042C294.124 715.042 292.14 698.931 304.074 705.379C304.074 705.379 300.025 692.557 303.952 689C307.882 685.443 319.802 691.353 319.802 691.353C319.802 691.353 307.96 673.819 313.786 672.55C313.786 672.55 300.753 669.271 301.758 666.968C302.76 664.662 306.453 664.209 306.453 664.209C306.453 664.209 294.019 661.643 288.788 662.716Z" stroke="#97451D" stroke-width="1.66668" stroke-miterlimit="10" stroke-linecap="round" stroke-linejoin="round"/>
<path d="M34.968 461.383C34.968 461.383 -7.75616 471.121 13.4365 519.071C14.1577 520.707 11.7675 513.734 25.4551 505.522C42.3246 495.399 44.6844 477.776 38.9391 463.219C38.5701 462.285 44.8571 455.116 53.0905 452.693C53.3172 452.622 53.4931 452.479 53.6625 452.472C54.8238 452.422 48.5877 448.055 48.5877 448.055C48.5877 448.055 41.9757 450.796 34.968 461.383Z" fill="#F3D73E" stroke="#97451D" stroke-width="1.66668" stroke-miterlimit="10" stroke-linecap="round" stroke-linejoin="round"/>
<path d="M34.0947 465.703C34.0947 465.703 34.7888 476.853 26.4705 487.054C18.149 497.256 13.4668 497.965 13.4668 511.849" stroke="#97451D" stroke-width="1.66668" stroke-miterlimit="10" stroke-linecap="round" stroke-linejoin="round"/>
<path d="M12.0015 490.654C12.0015 490.654 26.4236 483.187 29.3891 482.87C29.3891 482.87 29.1724 491.111 26.3828 496.236M23.7897 477.676C23.7897 477.676 32.741 476.422 33.6788 471.239" stroke="#97451D" stroke-width="1.66668" stroke-miterlimit="10" stroke-linecap="round" stroke-linejoin="round"/>
<path d="M60.1831 336.498C60.1831 336.498 53.7437 380.569 6.21892 362.486C4.60077 361.87 11.463 363.798 18.4166 349.312C26.992 331.461 43.7632 327.804 58.1449 332.595C59.0723 332.901 65.5286 326.004 67.2956 317.474C67.3461 317.236 67.4787 317.05 67.4718 316.875C67.4379 315.688 72.0558 321.709 72.0558 321.709C72.0558 321.709 69.8786 328.627 60.1827 336.498H60.1831Z" fill="#F2A844" stroke="#97451D" stroke-width="1.66668" stroke-miterlimit="10" stroke-linecap="round" stroke-linejoin="round"/>
<path d="M56.0933 337.692C56.0933 337.692 45.331 337.785 36.0923 346.967C26.8568 356.149 26.4946 360.95 13.1558 361.944" stroke="#97451D" stroke-width="1.66668" stroke-miterlimit="10" stroke-linecap="round" stroke-linejoin="round"/>
<path d="M33.624 361.916C33.624 361.916 39.8128 346.742 39.9179 343.705C39.9179 343.705 32.0095 344.514 27.2764 347.712M45.2938 349.02C45.2938 349.02 45.886 339.841 50.8055 338.522" stroke="#97451D" stroke-width="1.66668" stroke-miterlimit="10" stroke-linecap="round" stroke-linejoin="round"/>
<path d="M320.753 508.702C320.753 508.702 360.6 495.809 359.168 539.645C359.118 541.138 358.738 535.086 344.201 535.603C326.289 536.237 318.153 524.831 318.001 511.846C317.978 509.967 313.116 503.515 313.147 503.344C313.641 500.831 314.863 499.095 314.863 499.095C314.863 499.095 316.241 506.064 320.753 508.702Z" fill="#F3D73E" stroke="#97451D" stroke-width="1.66668" stroke-miterlimit="10" stroke-linecap="round" stroke-linejoin="round"/>
<path d="M321.008 512.694C321.008 512.694 326.313 514.84 336.963 518.222C347.61 521.601 351.815 524.688 356.636 534.537" stroke="#97451D" stroke-width="1.66668" stroke-miterlimit="10" stroke-linecap="round" stroke-linejoin="round"/>
<path d="M350.525 518.821C350.525 518.821 338.599 516.75 335.954 517.898C335.954 517.898 336.029 527.101 340.186 529.443M330.365 523.498C330.365 523.498 329.011 517.941 326.415 514.697" stroke="#97451D" stroke-width="1.66668" stroke-miterlimit="10" stroke-linecap="round" stroke-linejoin="round"/>
<path d="M61.2564 661.465C61.2564 661.465 79.2637 629.591 110.742 681.304C111.544 682.624 108.703 679.836 94.559 685.386C70.3936 694.864 55.8566 674.824 59.8007 665.653C59.9935 665.207 46.9292 652.596 46.9429 652.418C47.0512 650.892 49.1298 649.595 49.1298 649.595C49.1298 649.595 55.9718 660.309 61.2564 661.465Z" fill="#DB820D" stroke="#97451D" stroke-width="1.66668" stroke-miterlimit="10" stroke-linecap="round" stroke-linejoin="round"/>
<path d="M63.8799 665.656C63.8799 665.656 70.7627 674.325 82.3642 674.222C93.9632 674.118 97.6531 671.081 105.477 679.319" stroke="#97451D" stroke-width="1.66668" stroke-miterlimit="10" stroke-linecap="round" stroke-linejoin="round"/>
<path d="M94.5589 665.656C94.5589 665.656 80.2184 671.891 77.9499 673.894C77.9499 673.894 82.7505 678.628 87.5988 679.608M78.9079 664.01C78.9079 664.01 71.6026 671.124 68.0239 668.736" stroke="#97451D" stroke-width="1.66668" stroke-miterlimit="10" stroke-linecap="round" stroke-linejoin="round"/>
</g>
<defs>
<clipPath id="clip0_291_1642">
<rect width="390" height="730" fill="white"/>
</clipPath>
</defs>
</svg>
