<svg width="356" height="397" viewBox="0 0 356 397" fill="none" xmlns="http://www.w3.org/2000/svg">
<path d="M101.414 333.207C101.414 333.207 84.0468 355.051 76.6874 354.559C76.6874 354.559 83.746 349.891 83.746 345.887C83.746 345.887 73.5546 354.648 62.6913 355.176L69.3788 348.859C69.3788 348.859 56.703 355.262 48.6952 353.566C40.6874 351.871 35.5194 347.125 28.0468 345.543C20.5702 343.957 18.4764 348.492 18.4764 348.492C18.4764 348.492 20.6053 342.559 26.0155 341.113C26.0155 341.113 15.4022 342.855 7.42957 328.207C-0.546997 313.562 1.17957 303.504 1.17957 303.504C1.17957 303.504 5.05847 306.734 11.3983 304.387C17.7421 302.043 26.5038 299.5 34.0468 302.254C34.0468 302.254 29.8319 297.828 25.7382 297.184C25.7382 297.184 38.035 294.953 46.2499 301.375L44.7772 293.141C44.7772 293.141 48.1835 301.598 56.6171 302.48C65.0507 303.363 80.8358 306.621 85.9843 313.457C91.1288 320.289 101.414 333.207 101.414 333.207Z" fill="#973216"/>
<path d="M18.0193 302.273C18.0193 302.273 7.08176 307.109 1.18332 303.504C1.18332 303.504 -0.566679 324.543 17.1599 338.867L18.0193 302.273Z" fill="white"/>
<path d="M27.9764 301.309C27.9764 301.309 19.8865 301.016 15.4295 303.414C10.9725 305.809 15.2615 311.609 16.4803 314.981C17.699 318.352 16.3279 319.445 13.699 318.957C8.5545 318.012 14.7303 334.77 18.0154 339.391C18.66 340.293 24.5154 341.34 24.5154 341.34C24.5154 341.34 16.367 312.918 27.9764 301.309Z" fill="black"/>
<path d="M43.8239 300.18C43.8239 300.18 26.6755 319.59 37.8161 349.004C37.8161 349.004 46.7458 354.422 52.3864 353.664C52.3864 353.664 36.7028 324.168 54.2966 302.727C54.2966 302.727 49.6989 301.203 45.1091 294.977C44.2263 293.773 46.1599 300.848 46.1599 300.848L43.8239 300.18Z" fill="black"/>
<path d="M65.074 303.754C65.074 303.754 49.5545 329.117 65.8904 351.129C65.8904 351.129 65.7107 352.582 62.6912 355.18C62.6912 355.18 72.992 354.5 78.7146 349.582C78.7146 349.582 62.6717 327.402 79.0506 305.574L65.074 303.754Z" fill="black"/>
<path d="M101.414 333.208C101.414 333.208 84.0468 355.051 76.6874 354.559C76.6874 354.559 83.746 349.891 83.746 345.887C83.746 345.887 73.5546 354.649 62.6913 355.176L69.3788 348.86C69.3788 348.86 56.703 355.262 48.6952 353.567C40.6874 351.872 35.5194 347.126 28.0468 345.544C20.5702 343.958 18.4765 348.493 18.4765 348.493C18.4765 348.493 20.6054 342.559 26.0155 341.114C26.0155 341.114 15.4022 342.856 7.42957 328.208C-0.546997 313.563 1.17957 303.504 1.17957 303.504C1.17957 303.504 5.05848 306.735 11.3983 304.387C17.7421 302.043 26.5038 299.5 34.0468 302.254C34.0468 302.254 29.8319 297.829 25.7382 297.184C25.7382 297.184 38.0351 294.954 46.2499 301.375L44.7773 293.141C44.7773 293.141 48.1835 301.598 56.6171 302.481C65.0507 303.364 80.8359 306.622 85.9843 313.458C91.1289 320.29 101.414 333.208 101.414 333.208Z" stroke="black" stroke-width="1.66667" stroke-miterlimit="10" stroke-linecap="round" stroke-linejoin="round"/>
<path d="M319.965 298.778C319.965 298.778 322.891 305.672 319.129 313.852C315.367 322.028 309.063 324.258 309.063 324.258C309.063 324.258 305.195 317.583 309.797 308.137C314.399 298.688 319.965 298.778 319.965 298.778Z" fill="#06002A" stroke="black" stroke-width="1.66667" stroke-miterlimit="10" stroke-linecap="round" stroke-linejoin="round"/>
<path d="M313.254 300.762L327.922 306.673C327.922 306.673 331.117 292.501 342.508 296.466C353.816 300.399 344.773 313.145 344.773 313.145C344.773 313.145 358.125 316.364 353.32 328.223C348.703 339.61 337.246 331.548 337.246 331.548C337.246 331.548 338.051 346.833 326.484 342.634C315.051 338.485 320.703 321.473 320.703 321.473L307.27 314.641L313.254 300.762Z" fill="white" stroke="black" stroke-width="1.66667" stroke-miterlimit="10" stroke-linecap="round" stroke-linejoin="round"/>
<path d="M319.074 311.285C319.305 308.203 324.461 311.32 324.754 309.57C325.047 307.82 325.117 306.25 325.117 306.25L313.715 301.527L307.824 314.098L317.887 319.152C317.887 319.152 319.98 317.812 320.383 316.195C321.285 312.617 318.98 312.605 319.074 311.285Z" fill="#973216"/>
<path d="M309.434 324.274C309.434 324.274 294.332 316.192 287.48 312.786C280.609 309.368 284.176 302.825 288.332 294.02C292.492 285.216 293.637 282.727 299.062 285.036C304.488 287.341 320.77 299.149 320.77 299.149C320.77 299.149 314.965 301.899 311.855 310.516C309.187 317.903 309.434 324.274 309.434 324.274Z" fill="#36136D" stroke="black" stroke-width="1.66667" stroke-miterlimit="10" stroke-linecap="round" stroke-linejoin="round"/>
<path d="M293.816 307.524L308.863 315.028" stroke="white" stroke-width="1.66667" stroke-miterlimit="10" stroke-linecap="round" stroke-linejoin="round"/>
<path d="M292.359 310.418L308.367 318.309" stroke="white" stroke-width="1.66667" stroke-miterlimit="10" stroke-linecap="round" stroke-linejoin="round"/>
<path d="M265.304 283.696C265.304 283.696 291.074 282.008 299.347 285.176C308.238 288.574 293.816 312.805 287.476 312.778C287.086 312.778 283.187 309.352 279.429 309.598C279.429 309.598 281.898 314.258 279.644 314.606C277.39 314.949 273.125 309.735 273.125 309.735C273.125 309.735 264.015 313.215 257.691 314.633C251.371 316.055 255.246 288.59 265.304 283.696Z" fill="#36136D"/>
<path d="M252.605 306.512C252.605 306.512 261.488 304.946 264.426 304.051C267.367 303.153 267.863 298.797 270.215 298.805C272.57 298.813 273.18 300.797 274.297 301.043C275.492 301.305 276.98 299.512 279.09 300.348C281.203 301.18 295.199 308.18 295.199 308.18" stroke="white" stroke-width="1.66667" stroke-miterlimit="10" stroke-linecap="round" stroke-linejoin="round"/>
<path d="M252.297 310.446C252.297 310.446 263.773 308.571 265.922 307.313C268.066 306.051 267.82 303.77 270.711 303.411C273.609 303.047 274.32 306.083 275.688 305.614C277.055 305.145 276.902 302.614 281.086 304.692C285.27 306.77 293.945 311.235 293.945 311.235" stroke="white" stroke-width="1.66667" stroke-miterlimit="10" stroke-linecap="round" stroke-linejoin="round"/>
<path d="M301.668 287.379C296.758 289.59 291.254 300.813 290.993 300.645C281.996 295.036 275.914 296.305 276.348 295.567C282.641 284.911 287.215 283.661 287.215 283.661" stroke="white" stroke-width="1.66667" stroke-miterlimit="10" stroke-linecap="round" stroke-linejoin="round"/>
<path d="M299.832 285.942C296.465 287.43 291.016 296.25 290.836 296.141C284.727 292.493 280.567 293.36 280.864 292.875C285.223 285.809 291.45 283.555 291.45 283.555" stroke="white" stroke-width="1.66667" stroke-miterlimit="10" stroke-linecap="round" stroke-linejoin="round"/>
<path d="M265.305 283.696C265.305 283.696 294.758 280.372 303.363 287.36" stroke="black" stroke-width="1.66667" stroke-miterlimit="10" stroke-linecap="round" stroke-linejoin="round"/>
<path d="M287.48 312.778C287.09 312.778 283.191 309.352 279.434 309.598C279.434 309.598 281.902 314.258 279.648 314.606C277.395 314.95 273.129 309.735 273.129 309.735C273.129 309.735 264.02 313.215 257.695 314.633" stroke="black" stroke-width="1.66667" stroke-miterlimit="10" stroke-linecap="round" stroke-linejoin="round"/>
<path d="M265.304 283.696C265.304 283.696 291.074 282.008 299.347 285.176C308.238 288.574 293.816 312.805 287.476 312.778C287.086 312.778 283.187 309.352 279.429 309.598C279.429 309.598 281.898 314.258 279.644 314.606C277.39 314.949 273.125 309.735 273.125 309.735C273.125 309.735 264.015 313.215 257.691 314.633C251.371 316.055 255.246 288.59 265.304 283.696Z" fill="#36136D"/>
<path d="M252.605 306.512C252.605 306.512 261.488 304.946 264.426 304.051C267.367 303.153 267.863 298.797 270.215 298.805C272.57 298.813 273.18 300.797 274.297 301.043C275.492 301.305 276.98 299.512 279.09 300.348C281.203 301.18 295.199 308.18 295.199 308.18" stroke="white" stroke-width="1.66667" stroke-miterlimit="10" stroke-linecap="round" stroke-linejoin="round"/>
<path d="M252.297 310.446C252.297 310.446 263.773 308.571 265.922 307.313C268.066 306.051 267.82 303.77 270.711 303.411C273.609 303.047 274.32 306.083 275.688 305.614C277.055 305.145 276.902 302.614 281.086 304.692C285.27 306.77 293.945 311.235 293.945 311.235" stroke="white" stroke-width="1.66667" stroke-miterlimit="10" stroke-linecap="round" stroke-linejoin="round"/>
<path d="M301.668 287.379C296.758 289.59 291.254 300.813 290.993 300.645C281.996 295.036 275.914 296.305 276.348 295.567C282.641 284.911 287.215 283.661 287.215 283.661" stroke="white" stroke-width="1.66667" stroke-miterlimit="10" stroke-linecap="round" stroke-linejoin="round"/>
<path d="M299.832 285.942C296.465 287.43 291.016 296.25 290.836 296.141C284.727 292.493 280.567 293.36 280.864 292.875C285.223 285.809 291.45 283.555 291.45 283.555" stroke="white" stroke-width="1.66667" stroke-miterlimit="10" stroke-linecap="round" stroke-linejoin="round"/>
<path d="M265.305 283.696C265.305 283.696 294.758 280.372 303.363 287.36" stroke="black" stroke-width="1.66667" stroke-miterlimit="10" stroke-linecap="round" stroke-linejoin="round"/>
<path d="M287.48 312.778C287.09 312.778 283.191 309.352 279.434 309.598C279.434 309.598 281.902 314.258 279.648 314.606C277.395 314.95 273.129 309.735 273.129 309.735C273.129 309.735 264.02 313.215 257.695 314.633" stroke="black" stroke-width="1.66667" stroke-miterlimit="10" stroke-linecap="round" stroke-linejoin="round"/>
<path d="M285.266 192.723C285.266 192.723 291.528 213.997 284.391 215.13C277.356 216.247 272.078 210.34 272.672 198.325C273.266 186.309 281.32 187.985 285.266 192.723Z" fill="white" stroke="black" stroke-width="1.66667" stroke-miterlimit="10" stroke-linecap="round" stroke-linejoin="round"/>
<path d="M273.172 202.208C272.356 202.735 269.133 207.278 270.25 212.008C271.524 217.426 280.254 222.102 284.668 215.262" fill="white"/>
<path d="M273.172 202.208C272.356 202.735 269.133 207.278 270.25 212.008C271.524 217.426 280.254 222.102 284.668 215.262" stroke="black" stroke-width="1.66667" stroke-miterlimit="10" stroke-linecap="round" stroke-linejoin="round"/>
<path d="M288.273 202.301C288.273 202.301 294.113 200.75 294.113 209.7C294.113 218.649 277.918 221.067 277.141 213.231" fill="white"/>
<path d="M288.273 202.301C288.273 202.301 294.113 200.75 294.113 209.7C294.113 218.649 277.918 221.067 277.141 213.231" stroke="black" stroke-width="1.66667" stroke-miterlimit="10" stroke-linecap="round" stroke-linejoin="round"/>
<path d="M282.695 209.95C282.695 209.95 290.973 212.528 290.973 203.731C290.973 200.18 286.566 197.7 283.723 197.567" fill="white"/>
<path d="M282.695 209.95C282.695 209.95 290.973 212.528 290.973 203.731C290.973 200.18 286.566 197.7 283.723 197.567" stroke="black" stroke-width="1.66667" stroke-miterlimit="10" stroke-linecap="round" stroke-linejoin="round"/>
<path d="M250.351 150.035C250.351 150.035 284.574 154.871 287.465 164.938C289.789 173.02 277.176 181.664 267.273 178.879C257.375 176.09 249.496 175.981 242.207 179.043C234.918 182.109 232.336 149.359 250.351 150.035Z" fill="#973216"/>
<path d="M237.578 156.957C230.289 160.024 232.332 149.36 250.351 150.036C250.351 150.036 286.394 156.321 289.285 166.387C291.605 174.473 277.172 181.664 267.269 178.875C262.687 177.582 257.289 176.864 253.43 176.766" stroke="black" stroke-width="1.66667" stroke-miterlimit="10" stroke-linecap="round" stroke-linejoin="round"/>
<path d="M265.484 172.828C260.313 174.121 269.277 165.824 265.574 153.789C265.574 153.789 274.961 155.707 276.52 157.797C276.524 157.797 278.793 169.508 265.484 172.828Z" fill="black"/>
<path d="M286.723 162.742C287.269 162.652 290.957 167.082 289.973 173.801C288.527 183.586 284.672 193.727 284.672 193.727C284.672 193.727 272.082 202.598 272.23 196.426C272.375 190.254 272.273 184.731 271.527 182.848C271.039 181.609 271.355 180.551 270.051 179.367C267.015 176.621 278.691 164.02 286.723 162.742Z" fill="#973216"/>
<path d="M283.91 172.051C280.316 175.965 276.684 176.352 277.512 180.633C278.34 184.918 285.535 184.445 287.926 180.59C290.207 176.91 290.008 167.426 288.504 165.359C288.09 164.797 287.063 168.617 283.91 172.051Z" fill="black"/>
<path d="M272.66 198.61C272.809 192.438 272.273 184.731 271.527 182.848C271.039 181.61 270.707 179.399 268.57 179.184" stroke="black" stroke-width="1.66667" stroke-miterlimit="10" stroke-linecap="round" stroke-linejoin="round"/>
<path d="M284.773 161.25C288.277 163.676 290.941 166.536 289.965 173.801C288.652 183.61 285.418 193.274 285.418 193.274" stroke="black" stroke-width="1.66667" stroke-miterlimit="10" stroke-linecap="round" stroke-linejoin="round"/>
<path d="M80.246 169.606C80.246 169.606 69.3476 226.235 66.832 250.801C64.3203 275.368 63.4335 269.692 66.0742 287.364C68.9414 306.547 174.676 312.333 223.641 296.141C272.609 279.95 288.129 254.899 288.129 254.899C288.129 254.899 268.137 173.649 223.641 147.227C189.887 127.176 80.246 169.606 80.246 169.606Z" fill="#973216" stroke="black" stroke-width="1.66667" stroke-miterlimit="10" stroke-linecap="round" stroke-linejoin="round"/>
<path d="M91.461 167.239C91.461 167.239 53.3829 251.649 96.7422 300.969C140.106 350.293 196.59 309.321 219.727 302.063C242.863 294.809 281.352 250.981 281.352 250.981C281.352 250.981 279.258 198.731 231.559 151.039C202.008 121.485 98.1641 154 91.461 167.239Z" fill="#D98000"/>
<path d="M80.2461 169.606C80.2461 169.606 69.3476 226.235 66.832 250.801C64.3203 275.368 63.4335 269.692 66.0742 287.364C68.9414 306.547 174.676 312.332 223.641 296.141C272.609 279.95 288.129 254.899 288.129 254.899C288.129 254.899 288.953 200.102 227.293 142.465C198.613 115.66 80.2461 169.606 80.2461 169.606Z" stroke="black" stroke-width="1.66667" stroke-miterlimit="10" stroke-linecap="round" stroke-linejoin="round"/>
<path d="M65.2029 275.578C65.2029 275.578 61.2224 328.262 93.5388 343.77C121.933 357.395 175.285 355.887 212.894 344.258C250.508 332.633 282.176 322.086 288.133 280.945C290.777 262.68 286.742 246.297 286.742 246.297C286.742 246.297 253.379 279.688 191.644 291.961C95.7341 311.043 65.2029 275.578 65.2029 275.578Z" fill="#36136D"/>
<path d="M66.8516 287.364C66.8516 287.364 84.5742 307.305 136.555 307.305C177.859 307.305 215.774 295.7 234.699 289.227C267.91 277.864 288.133 259.649 288.133 259.649" stroke="white" stroke-width="1.66667" stroke-miterlimit="10" stroke-linecap="round" stroke-linejoin="round"/>
<path d="M73.8241 284.379C73.8241 284.379 72.2108 316.208 95.035 333.079C113.211 346.52 142.055 346.79 142.055 346.79" stroke="white" stroke-width="1.66667" stroke-miterlimit="10" stroke-linecap="round" stroke-linejoin="round"/>
<path d="M79.8088 287.364C79.8088 287.364 76.5119 313.661 96.797 328.958C113.313 341.418 133.813 342.184 142.059 342.954" stroke="white" stroke-width="1.66667" stroke-miterlimit="10" stroke-linecap="round" stroke-linejoin="round"/>
<path d="M102.867 294.649C102.867 294.649 104.723 316.383 87.1016 324.247" stroke="white" stroke-width="1.66667" stroke-miterlimit="10" stroke-linecap="round" stroke-linejoin="round"/>
<path d="M109.973 296.188C109.973 296.188 111.387 320.184 92.832 330.711" stroke="white" stroke-width="1.66667" stroke-miterlimit="10" stroke-linecap="round" stroke-linejoin="round"/>
<path d="M212.395 287.364C212.395 287.364 224.977 330.938 217.324 342.215" stroke="white" stroke-width="1.66667" stroke-miterlimit="10" stroke-linecap="round" stroke-linejoin="round"/>
<path d="M232.648 279.614C232.648 279.614 245.316 319.098 237.574 336.059" stroke="white" stroke-width="1.66667" stroke-miterlimit="10" stroke-linecap="round" stroke-linejoin="round"/>
<path d="M65.2029 275.579C65.2029 275.579 61.2224 328.262 93.5388 343.77C121.933 357.395 175.285 355.887 212.894 344.258C250.508 332.633 282.176 322.086 288.133 280.946C290.777 262.68 286.742 246.297 286.742 246.297C286.742 246.297 253.379 279.688 191.644 291.961C95.7341 311.044 65.2029 275.579 65.2029 275.579Z" stroke="black" stroke-width="1.66667" stroke-miterlimit="10" stroke-linecap="round" stroke-linejoin="round"/>
<path d="M96.2971 196.09C96.2971 196.09 115.899 240.942 123.305 283.946L138.696 283.368C138.696 283.368 122.055 222.836 107.93 193.727C93.801 164.614 96.2971 196.09 96.2971 196.09Z" fill="#6BA3E0" stroke="black" stroke-width="1.66667" stroke-miterlimit="10" stroke-linecap="round" stroke-linejoin="round"/>
<path d="M99.5703 196.598C99.5703 196.598 115.527 227.766 127.777 283.25L134.234 282.91C134.234 282.91 127.527 248.895 103.773 193.254" fill="#390D6F"/>
<path d="M131.426 284.379L120.555 298.704L120.699 305.571L142.059 305.524V298.641L131.426 284.379ZM125.004 299.833L131.484 290.653L136.609 299.583L125.004 299.833Z" fill="white" stroke="black" stroke-width="1.66667" stroke-miterlimit="10" stroke-linecap="round" stroke-linejoin="round"/>
<path d="M106.41 223.165L108.547 228.477L121.68 227.372L119.523 222.305L106.41 223.165Z" fill="white" stroke="black" stroke-width="1.66667" stroke-miterlimit="10" stroke-linecap="round" stroke-linejoin="round"/>
<path d="M121.68 282.563V288.895L139.695 288.008L139.852 281.813L121.68 282.563Z" fill="white" stroke="black" stroke-width="1.66667" stroke-miterlimit="10" stroke-linecap="round" stroke-linejoin="round"/>
<path d="M228.625 169.973C228.625 169.973 259.465 200.934 268.672 242.383L279.758 240.04C279.758 240.04 274.488 203.676 236.809 162.747C215.871 140.001 228.625 169.973 228.625 169.973Z" fill="#6BA3E0" stroke="black" stroke-width="1.66667" stroke-miterlimit="10" stroke-linecap="round" stroke-linejoin="round"/>
<path d="M229.648 165.477C229.648 165.477 258.98 192.793 271.812 241.176L276.445 240.098C276.445 240.098 272.043 208.59 235.703 161.25" fill="#390D6F"/>
<path d="M283.516 251.61L273.902 242.379L268.988 258.918L270.418 266.95L285.297 258.645L283.516 251.61ZM272.586 258.922L275.664 248.067L280.852 254.415L272.586 258.922Z" fill="white" stroke="black" stroke-width="1.66667" stroke-miterlimit="10" stroke-linecap="round" stroke-linejoin="round"/>
<path d="M242.926 187.903L246.16 192.485L256.055 186.95L253.051 182.395L242.926 187.903Z" fill="white" stroke="black" stroke-width="1.66667" stroke-miterlimit="10" stroke-linecap="round" stroke-linejoin="round"/>
<path d="M267.484 242.379L268.57 248.497L280.852 243.051L279.758 237.122L267.484 242.379Z" fill="white" stroke="black" stroke-width="1.66667" stroke-miterlimit="10" stroke-linecap="round" stroke-linejoin="round"/>
<path d="M211.644 350.052C211.644 350.052 213.078 357.419 207.266 364.571C201.449 371.727 194.383 372.524 194.383 372.524C194.383 372.524 191.918 365.169 198.898 356.954C205.883 348.743 211.644 350.052 211.644 350.052Z" fill="#06002A" stroke="black" stroke-width="1.66667" stroke-miterlimit="10" stroke-linecap="round" stroke-linejoin="round"/>
<path d="M204.207 350.516L218.07 359.493C218.07 359.493 224.688 346.364 235.605 352.727C246.438 359.04 234.074 369.497 234.074 369.497C234.074 369.497 247.199 375.555 239.441 386.075C231.992 396.18 221.961 385.805 221.961 385.805C221.961 385.805 219.238 400.899 208.199 394.27C197.289 387.723 207.125 372.36 207.125 372.36L194.758 362.758L204.207 350.516Z" fill="white" stroke="black" stroke-width="1.66667" stroke-miterlimit="10" stroke-linecap="round" stroke-linejoin="round"/>
<path d="M207.812 362.059C208.766 359.105 213.398 363.273 214.113 361.629C214.824 359.984 215.262 358.465 215.262 358.465L204.516 351.367L195.473 362.34L204.746 369.477C204.746 369.477 207.234 368.621 208.027 367.133C209.797 363.84 207.398 363.324 207.812 362.059Z" fill="#973216"/>
<path d="M194.762 372.626C194.762 372.626 180.953 361.434 174.625 356.61C168.278 351.77 173.512 346.173 179.879 338.489C186.246 330.805 188.02 328.626 193.121 332.063C198.223 335.501 212.391 350.583 212.391 350.583C212.391 350.583 205.723 351.997 200.481 359.727C195.992 366.36 194.762 372.626 194.762 372.626Z" fill="#36136D" stroke="black" stroke-width="1.66667" stroke-miterlimit="10" stroke-linecap="round" stroke-linejoin="round"/>
<path d="M182.438 352.868L196.324 363.481" stroke="white" stroke-width="1.66667" stroke-miterlimit="10" stroke-linecap="round" stroke-linejoin="round"/>
<path d="M180.25 355.372L195.047 366.571" stroke="white" stroke-width="1.66667" stroke-miterlimit="10" stroke-linecap="round" stroke-linejoin="round"/>
<path d="M158.359 323.379C158.359 323.379 185.527 327.371 193.386 332.266C201.832 337.527 181.207 358.016 174.625 356.609C174.226 356.52 170.972 352.324 167.004 351.742C167.004 351.742 168.488 356.832 166.062 356.68C163.636 356.523 160.422 350.504 160.422 350.504C160.422 350.504 150.144 351.91 143.242 351.91C136.347 351.91 146.769 325.957 158.359 323.379Z" fill="#36136D"/>
<path d="M139.852 342.868C139.852 342.868 149.445 343.278 152.707 343.051C155.973 342.817 157.504 338.676 159.949 339.196C162.395 339.723 162.563 341.79 163.668 342.27C164.848 342.794 166.813 341.368 168.813 342.641C170.813 343.919 183.727 353.809 183.727 353.809" stroke="white" stroke-width="1.66667" stroke-miterlimit="10" stroke-linecap="round" stroke-linejoin="round"/>
<path d="M138.617 346.637C138.617 346.637 150.98 347.321 153.504 346.559C156.023 345.798 156.305 343.516 159.395 343.798C162.488 344.075 162.52 347.196 164.055 347.04C165.582 346.88 166.016 344.376 169.879 347.321C173.742 350.266 181.715 356.512 181.715 356.512" stroke="white" stroke-width="1.66667" stroke-miterlimit="10" stroke-linecap="round" stroke-linejoin="round"/>
<path d="M195.285 334.926C189.668 336.012 181.336 345.758 181.101 345.54C173.059 338.098 166.441 338.001 167.062 337.379C176.086 328.356 181.129 328.137 181.129 328.137" stroke="white" stroke-width="1.66667" stroke-miterlimit="10" stroke-linecap="round" stroke-linejoin="round"/>
<path d="M193.715 333.122C189.875 333.836 182.152 341.251 181.992 341.11C176.492 336.208 171.965 336.145 172.391 335.739C178.562 329.797 185.566 328.958 185.566 328.958" stroke="white" stroke-width="1.66667" stroke-miterlimit="10" stroke-linecap="round" stroke-linejoin="round"/>
<path d="M158.359 323.38C158.359 323.38 189.738 326.575 197.051 335.274" stroke="black" stroke-width="1.66667" stroke-miterlimit="10" stroke-linecap="round" stroke-linejoin="round"/>
<path d="M174.625 356.61C174.227 356.52 170.973 352.325 167.004 351.743C167.004 351.743 168.488 356.833 166.063 356.68C163.637 356.524 160.422 350.505 160.422 350.505C160.422 350.505 150.145 351.911 143.242 351.911" stroke="black" stroke-width="1.66667" stroke-miterlimit="10" stroke-linecap="round" stroke-linejoin="round"/>
<path d="M60.2736 258.625C60.2736 258.625 57.3048 254.207 49.9962 255.086C42.6876 255.965 42.7345 263.231 46.0353 266.215C49.3321 269.2 59.1407 266.075 59.1407 266.075" fill="white"/>
<path d="M60.2736 258.625C60.2736 258.625 57.3048 254.207 49.9962 255.086C42.6876 255.965 42.7345 263.231 46.0353 266.215C49.3321 269.2 59.1407 266.075 59.1407 266.075" stroke="black" stroke-width="1.66667" stroke-miterlimit="10" stroke-linecap="round" stroke-linejoin="round"/>
<path d="M55.7461 263.012C55.7461 263.012 46.0976 260.434 45.75 269.048C45.4023 277.661 55.4726 285.665 64.3789 273.856" fill="white"/>
<path d="M55.7461 263.012C55.7461 263.012 46.0976 260.434 45.75 269.048C45.4023 277.661 55.4726 285.665 64.3789 273.856" stroke="black" stroke-width="1.66667" stroke-miterlimit="10" stroke-linecap="round" stroke-linejoin="round"/>
<path d="M58.715 256.266C58.715 256.266 48.5861 272.063 67.8166 272.063C86.1213 272.063 75.7268 254.204 73.1721 251.649" fill="white"/>
<path d="M58.715 256.266C58.715 256.266 48.5861 272.063 67.8166 272.063C86.1213 272.063 75.7268 254.204 73.1721 251.649" stroke="black" stroke-width="1.66667" stroke-miterlimit="10" stroke-linecap="round" stroke-linejoin="round"/>
<path d="M63.8671 265.395C53.4843 263.766 50.9022 281.208 64.1483 280.184C81.0155 278.879 78.8124 264.047 77.3007 258.887" fill="white"/>
<path d="M63.8671 265.395C53.4843 263.766 50.9022 281.208 64.1483 280.184C81.0155 278.879 78.8124 264.047 77.3007 258.887" stroke="black" stroke-width="1.66667" stroke-miterlimit="10" stroke-linecap="round" stroke-linejoin="round"/>
<path d="M57.3005 190.739C57.3005 190.739 29.3981 220.973 34.32 232.422C38.2692 241.617 56.402 240.082 63.4294 230.059C70.4528 220.035 77.6286 213.996 86.652 211.328C95.6833 208.668 73.3903 176.551 57.3005 190.739Z" fill="#973216"/>
<path d="M86.6602 211.332C95.6875 208.668 73.3945 176.551 57.3047 190.739C57.3047 190.739 28.8242 223.68 33.7422 235.129C37.6914 244.325 56.4101 240.083 63.4336 230.059C66.6875 225.418 71.1172 220.684 74.6055 217.692" stroke="black" stroke-width="1.66667" stroke-miterlimit="10" stroke-linecap="round" stroke-linejoin="round"/>
<path d="M60.5233 223.137C66.2616 220.434 51.7499 219.543 46.0975 205.664C46.0975 205.664 38.8905 214.5 39.0233 217.602C39.0272 217.605 45.7577 230.102 60.5233 223.137Z" fill="black"/>
<path d="M33.3594 229.836C32.7891 230.172 32.7266 237.027 38.6914 242.477C47.3906 250.41 58.5821 256.84 58.5821 256.84C58.5821 256.84 77.086 256.184 72.3047 250.609C67.5196 245.035 63.2305 239.215 62.4961 236.922C62.0156 235.414 60.9258 234.676 61.2422 232.602C61.9649 227.789 41.7227 224.973 33.3594 229.836Z" fill="#973216"/>
<path d="M42.957 236.301C49.2149 237.203 52.8594 234.817 55.3203 239.391C57.7852 243.961 50.8008 248.949 45.6953 247.195C40.8125 245.52 33.8594 236.629 33.6875 233.598C33.6367 232.766 37.4649 235.508 42.957 236.301Z" fill="black"/>
<path d="M74.1443 252.801C69.363 247.227 63.2263 239.223 62.4958 236.922C62.0154 235.415 60.6521 233.129 62.4646 231.317" stroke="black" stroke-width="1.66667" stroke-miterlimit="10" stroke-linecap="round" stroke-linejoin="round"/>
<path d="M34.0235 227C32.6251 231.875 32.3204 236.512 38.6915 242.477C47.2931 250.52 58.5821 256.84 58.5821 256.84" stroke="black" stroke-width="1.66667" stroke-miterlimit="10" stroke-linecap="round" stroke-linejoin="round"/>
<path d="M103.527 167.242C103.527 167.242 54.8867 171.184 46.7227 176.297L57.2969 175.98C57.2969 175.98 48.2696 178.914 44.9766 185.141C44.461 186.105 50.4922 182.695 50.4922 182.695C50.4922 182.695 46.1602 188.305 45.375 193.777C45.2617 194.574 50.0391 190.367 50.0391 190.367C50.0391 190.367 49.0078 204.105 60.2305 204.852C60.2305 204.852 66.1524 212.082 77.461 212.082C77.461 212.082 82.2617 216.68 100.375 214.582C118.488 212.488 124.84 214.855 124.84 214.855C124.84 214.855 157.059 218.133 188.918 209.422C220.773 200.707 219.418 194.934 231.574 178.633C245.488 159.984 249.16 161.328 252.578 156.746C256 152.164 257.625 145.555 254.957 140.035C254.957 140.035 260.277 140.109 261.715 143.078C261.715 143.078 262.367 134.082 249.25 132.992C249.25 132.992 249.98 130.086 258.004 130.422C259.043 130.461 251.977 124.668 241.922 128.184C240.973 128.516 247.773 120.668 247.773 120.668C247.773 120.668 220.699 130.445 209.895 138.414C199.09 146.371 103.527 167.242 103.527 167.242Z" fill="#973216"/>
<path d="M103.527 178.91C103.527 178.91 61.297 195.918 77.4571 212.078C77.4571 212.078 82.2579 216.676 100.371 214.578C118.484 212.485 124.836 214.852 124.836 214.852C124.836 214.852 147.645 229.125 191.063 214.196C234.234 199.352 221.547 196.32 231.57 178.629C239.738 164.223 242.211 168.41 245.629 163.824C249.047 159.242 236.191 114.973 194.477 145.727C183.676 153.692 103.527 178.91 103.527 178.91Z" fill="#D88004"/>
<path d="M231.574 178.633C245.488 159.985 249.16 161.329 252.578 156.747C256 152.165 257.625 145.555 254.957 140.036C254.957 140.036 260.278 140.11 261.715 143.079C261.715 143.079 262.367 134.083 249.25 132.993C249.25 132.993 249.981 130.086 258.004 130.422C259.043 130.461 251.977 124.669 241.922 128.184C240.973 128.516 247.774 120.668 247.774 120.668C247.774 120.668 220.699 130.446 209.895 138.415C199.09 146.376 103.535 167.251 103.535 167.251C103.535 167.251 54.8907 171.192 46.7266 176.305L57.3008 175.989C57.3008 175.989 48.2735 178.922 44.9805 185.149C44.4649 186.114 50.4961 182.704 50.4961 182.704C50.4961 182.704 46.1641 188.313 45.3789 193.79C45.2656 194.583 50.043 190.376 50.043 190.376C50.043 190.376 49.0117 204.114 60.2344 204.86C60.2344 204.86 66.1602 212.09 77.4649 212.09C77.4649 212.09 82.2657 216.688 100.379 214.59C118.492 212.497 124.848 214.864 124.848 214.864" stroke="black" stroke-width="1.66667" stroke-miterlimit="10" stroke-linecap="round" stroke-linejoin="round"/>
<path d="M56.3516 196.852C56.3516 196.852 57.8867 202.196 59.9023 204.778" stroke="black" stroke-width="1.66667" stroke-miterlimit="10" stroke-linecap="round" stroke-linejoin="round"/>
<path d="M72.0664 206.493C72.0664 206.493 74.1836 210.489 77.8242 212.34" stroke="black" stroke-width="1.66667" stroke-miterlimit="10" stroke-linecap="round" stroke-linejoin="round"/>
<path d="M121.848 211.872C121.848 211.872 128.371 215.36 130.777 219.063" stroke="black" stroke-width="1.66667" stroke-miterlimit="10" stroke-linecap="round" stroke-linejoin="round"/>
<path d="M130.793 214.196C130.793 214.196 136.645 220.376 140.879 221.192" stroke="black" stroke-width="1.66667" stroke-miterlimit="10" stroke-linecap="round" stroke-linejoin="round"/>
<path d="M237.57 165.477C237.57 165.477 228.453 174.208 229.777 184.669" stroke="black" stroke-width="1.66667" stroke-miterlimit="10" stroke-linecap="round" stroke-linejoin="round"/>
<path d="M226.641 182.731C226.641 182.731 228.867 194.829 225.098 198.305" stroke="black" stroke-width="1.66667" stroke-miterlimit="10" stroke-linecap="round" stroke-linejoin="round"/>
<path d="M223.641 192.485C223.641 192.485 222.445 201.204 215.859 202.215" stroke="black" stroke-width="1.66667" stroke-miterlimit="10" stroke-linecap="round" stroke-linejoin="round"/>
<path d="M147.5 46.8247C147.5 46.8247 151.199 25.3012 161.023 20.1645C166.043 17.5395 176.371 39.8208 179.145 45.0786" fill="#993118"/>
<path d="M147.5 46.8247C147.5 46.8247 151.199 25.3012 161.023 20.1645C166.043 17.5395 176.371 39.8208 179.145 45.0786" stroke="black" stroke-width="1.66667" stroke-miterlimit="10" stroke-linecap="round" stroke-linejoin="round"/>
<path d="M155.645 41.141C154.52 41.5238 158.633 30.7386 161.012 29.3324C163.391 27.934 169.992 41.4925 169.992 41.4925C169.992 41.4925 161.879 39.016 155.645 41.141Z" fill="white" stroke="black" stroke-width="1.66667" stroke-miterlimit="10" stroke-linecap="round" stroke-linejoin="round"/>
<path d="M80.2463 75.4888C80.2463 75.4888 55.8478 64.3755 50.5549 67.4732C46.6447 69.7583 45.5041 88.688 57.3009 107.266" fill="#993118"/>
<path d="M80.2463 75.4888C80.2463 75.4888 55.8478 64.3755 50.5549 67.4732C46.6447 69.7583 45.5041 88.688 57.3009 107.266" stroke="black" stroke-width="1.66667" stroke-miterlimit="10" stroke-linecap="round" stroke-linejoin="round"/>
<path d="M69.0744 78.8284C70.2501 78.1956 59.3244 73.8675 56.4259 74.7855C53.5236 75.6995 57.8243 90.5745 57.8243 90.5745C57.8243 90.5745 62.5744 82.3245 69.0744 78.8284Z" fill="white" stroke="black" stroke-width="1.66667" stroke-miterlimit="10" stroke-linecap="round" stroke-linejoin="round"/>
<path d="M146.543 210.942C146.543 210.942 130.465 199.785 118.418 196.797C106.367 193.805 81.7305 190.356 67.0156 177.008C52.3008 163.668 43.7383 152.254 49.4805 139.348C49.4805 139.348 43.7539 150.242 43.6836 149.715C43.6172 149.192 41.25 138.52 46.8867 127.383L38.8047 135.383L41.0156 125.367L35.5273 125.09C35.5273 125.09 46.5703 114.902 54.9531 99.797C59.1055 92.3165 73.0117 76.6954 76.1641 73.8048C79.3125 70.9142 92.1797 59.3947 113.266 52.1759C134.355 44.9533 143.711 42.9962 147.613 42.7033C151.512 42.4142 163.496 41.8829 177.883 43.1876C192.27 44.4923 205.938 46.5822 209.539 48.9884L200.676 49.8204L226.453 62.9493L213.762 61.6915C213.762 61.6915 228.254 73.8283 232.105 76.1329C232.105 76.1329 227.578 78.3361 224.52 78.0665C224.52 78.0665 239.945 90.2736 237.262 117.883C234.578 145.488 220.871 158.914 215.004 167.242C209.137 175.57 215.004 184.52 146.543 210.942Z" fill="#973216"/>
<path d="M146.543 210.941C146.543 210.941 130.465 199.785 118.418 196.797C110.914 194.934 95.543 191.547 86.6993 188.395C86.25 188.238 79.2032 170.797 93.1875 156.688C105.383 144.379 133.172 134.988 164.148 128.383C235.266 113.223 235.227 129.492 234.824 131.602C231.637 148.402 219.813 160.434 215.012 167.246C209.145 175.57 217.949 196.816 146.543 210.941Z" fill="#D98000"/>
<path d="M200.391 50.1836C200.391 50.1836 181.633 66.3711 192.074 71.168C202.519 75.9609 216.012 58.5 216.012 58.5L200.391 50.1836Z" fill="black"/>
<path d="M219.746 66.3516C219.746 66.3516 204.777 79.6875 211.742 84.457C218.703 89.2266 225.887 79.3281 225.887 79.3281L231.715 76.6094L219.746 66.3516Z" fill="black"/>
<path d="M233.832 91.6758C233.832 91.6758 216.223 94.4805 220.453 103.527C224.687 112.578 237.453 107.879 237.453 107.879C237.453 107.879 236.555 94.8281 233.832 91.6758Z" fill="black"/>
<path d="M78.5859 71.9143C78.5859 71.9143 92.2031 61.5393 95.4883 60.2697C98.7695 59.0041 108.688 65.8049 100.145 70.9182C91.6016 76.0236 78.5859 71.9143 78.5859 71.9143Z" fill="black"/>
<path d="M99.8125 57.9377C99.8125 57.9377 114.258 50.7697 121.238 49.8205C122.699 49.6212 127.836 59.1369 118.641 62.1955C112.539 64.2267 99.8125 57.9377 99.8125 57.9377Z" fill="black"/>
<path d="M127.797 47.2852C127.797 47.2852 130.18 56.5391 137.895 54.6602C145.613 52.7773 144.09 43.4414 144.09 43.4414L127.797 47.2852Z" fill="black"/>
<path d="M46.832 127.797L38.7227 135.223L40.7891 125.883L35.8867 125.27L43.3125 117.539C43.3125 117.539 62.6797 104.52 69.5703 115.242C76.4609 125.961 70.1211 127.203 62.6797 129.481C55.2383 131.754 44.5391 134.301 44.5391 134.301L46.832 127.797Z" fill="black"/>
<path d="M48.8242 142.262C48.8242 142.262 64.9843 137.321 66.5078 145.324C68.0351 153.328 59.2578 158.188 56.0195 158.188C52.7851 158.188 50.1249 157.117 50.1249 157.117C50.1249 157.117 46.1874 149.766 48.8242 142.262Z" fill="black"/>
<path d="M57.2461 167.371C57.2461 167.371 65.4375 152.016 73.2461 157.039C81.0547 162.059 72.1758 181.305 72.1758 181.305C72.1758 181.305 60.5391 171.215 57.2461 167.371Z" fill="black"/>
<path d="M150.754 75.4453L150.625 82.3672C150.625 82.3672 153.078 79.4297 150.754 75.4453Z" fill="black"/>
<path d="M155.266 75.918C155.266 75.918 155.192 81.4805 152.43 83.9141C149.664 86.3477 154.762 83.457 155.785 80.5156C156.805 77.5742 155.266 75.918 155.266 75.918Z" fill="black"/>
<path d="M117.52 90.2148L123.074 94.3555C123.074 94.3555 119.023 94.7734 117.52 90.2148Z" fill="black"/>
<path d="M115.504 93.457C115.504 93.457 119.945 96.8086 123.816 95.8008C127.688 94.793 121.809 97.6367 118.77 96.7539C115.73 95.8672 115.504 93.457 115.504 93.457Z" fill="black"/>
<path d="M177.887 43.1841C192.273 44.4888 205.941 46.5786 209.543 48.9849L200.68 49.8169L226.457 62.9458L213.766 61.688C213.766 61.688 228.258 73.8247 232.109 76.1294C232.109 76.1294 227.582 78.3326 224.523 78.063C224.523 78.063 239.949 90.2701 237.266 117.879C234.582 145.485 220.875 158.911 215.008 167.239" stroke="black" stroke-width="1.66667" stroke-miterlimit="10" stroke-linecap="round" stroke-linejoin="round"/>
<path d="M76.168 73.8013C79.3203 70.9107 92.1836 59.3911 113.27 52.1724C134.359 44.9497 145.07 42.9028 148.973 42.6138" stroke="black" stroke-width="1.66667" stroke-miterlimit="10" stroke-linecap="round" stroke-linejoin="round"/>
<path d="M146.543 210.942C146.543 210.942 130.465 199.786 118.418 196.797C106.367 193.805 81.7305 190.356 67.0156 177.008C52.3008 163.669 43.7383 152.254 49.4805 139.348C49.4805 139.348 43.7539 150.243 43.6836 149.715C43.6172 149.192 41.25 138.52 46.8867 127.383L38.8047 135.383L41.0156 125.368L35.5273 125.09C35.5273 125.09 45.8242 116.227 54.207 101.118" stroke="black" stroke-width="1.66667" stroke-miterlimit="10" stroke-linecap="round" stroke-linejoin="round"/>
<path d="M113.605 70.2621C113.605 70.2621 112.316 63.473 119.543 65.1058" stroke="black" stroke-width="1.66667" stroke-miterlimit="10" stroke-linecap="round" stroke-linejoin="round"/>
<path d="M130.559 60.8013C130.559 60.8013 132.367 55.0513 137.902 58.5748" stroke="black" stroke-width="1.66667" stroke-miterlimit="10" stroke-linecap="round" stroke-linejoin="round"/>
<path d="M146.691 76.4177C145.336 71.5935 141.722 68.3903 138.621 69.2653C135.519 70.1364 134.105 74.7536 135.464 79.5779C136.82 84.406 140.433 87.6091 143.535 86.7341C146.636 85.863 148.05 81.2419 146.691 76.4177Z" fill="#54B5EA" stroke="black" stroke-width="1.66665" stroke-miterlimit="10"/>
<path d="M143.082 78.5C142.398 75.8829 140.375 74.1446 138.566 74.6211C136.754 75.0938 135.84 77.5977 136.523 80.211C137.207 82.8282 139.23 84.5664 141.039 84.0938C142.851 83.6211 143.761 81.1172 143.082 78.5Z" fill="black"/>
<path d="M144.301 76.0195C144.301 77.2578 143.297 78.2617 142.059 78.2617C140.82 78.2617 139.816 77.2578 139.816 76.0195C139.816 74.7813 140.82 73.7773 142.059 73.7773C143.297 73.7773 144.301 74.7813 144.301 76.0195Z" fill="white"/>
<path d="M133.433 82.9574C131.929 78.516 128.249 75.7464 125.218 76.7738C122.187 77.8011 120.949 82.2347 122.456 86.68C123.96 91.1214 127.64 93.891 130.671 92.8636C133.702 91.8363 134.941 87.4027 133.433 82.9574Z" fill="#54B5EA" stroke="black" stroke-width="1.66665" stroke-miterlimit="10"/>
<path d="M129.816 85.0353C129.031 82.6329 126.965 81.1486 125.195 81.7267C123.43 82.3009 122.629 84.7189 123.414 87.1212C124.199 89.5275 126.266 91.0079 128.035 90.4337C129.801 89.8556 130.602 87.4415 129.816 85.0353Z" fill="black"/>
<path d="M131.152 82.9922C131.152 81.8398 130.152 80.9102 128.914 80.9102C127.676 80.9102 126.672 81.8398 126.672 82.9922C126.672 84.1406 127.676 85.0742 128.914 85.0742C130.152 85.0742 131.152 84.1406 131.152 82.9922Z" fill="white"/>
<path d="M145.48 133.739C144.769 138.199 151.598 145.012 162.308 140.321C173.019 135.629 172.141 126.41 172.141 126.41C172.141 126.41 147.055 123.852 145.48 133.739Z" fill="#E1141B"/>
<path d="M141.941 136.961C141.941 136.961 152.5 155.809 164.41 151.273C180.297 145.23 168.566 124.824 168.566 124.824L141.941 136.961Z" fill="#FEFEFE"/>
<path d="M153.922 149.965C157.098 151.829 160.688 152.696 164.41 151.278C169.371 149.391 171.641 146.102 172.414 142.465" stroke="black" stroke-width="1.66667" stroke-miterlimit="10" stroke-linecap="round" stroke-linejoin="round"/>
<path d="M147.965 104.77C155.41 95.606 168.879 77.4654 187.82 78.3755C206.766 79.2779 217.168 95.0474 217.168 112.946C217.168 130.848 209.637 169.774 170.836 179.575C132.039 189.376 95.8709 172.251 88.3826 149.829C80.8943 127.411 92.5115 113.215 101.57 108.075C116.16 99.7974 147.965 104.77 147.965 104.77Z" fill="#FEFEFE" stroke="black" stroke-width="1.66667" stroke-miterlimit="10" stroke-linecap="round" stroke-linejoin="round"/>
<path d="M154.93 99.0548C149.082 103.149 147.711 114.516 151.922 123.102C156.129 131.684 170.508 136.871 178.02 132.082C190.652 124.035 188.68 116.66 185.223 109.106C181.766 101.559 167.164 90.4806 154.93 99.0548Z" fill="#FEFEFE"/>
<path d="M154.93 99.0552C149.082 103.149 147.711 114.516 151.922 123.102C156.129 131.684 171.5 138.004 180.52 130.833C189.512 123.461 188.68 116.661 185.223 109.106" stroke="black" stroke-width="1.66667" stroke-miterlimit="10" stroke-linecap="round" stroke-linejoin="round"/>
<path d="M191.066 111.676C191.066 111.676 187.23 106.18 181.934 110.422" stroke="black" stroke-width="1.66667" stroke-miterlimit="10" stroke-linecap="round" stroke-linejoin="round"/>
<path d="M170.914 113.075L171.207 113.856" stroke="black" stroke-width="1.66667" stroke-miterlimit="10" stroke-linecap="round" stroke-linejoin="round"/>
<path d="M174.527 106.684L174.234 107.856" stroke="black" stroke-width="1.66667" stroke-miterlimit="10" stroke-linecap="round" stroke-linejoin="round"/>
<path d="M168.23 106.516L167.945 105.868" stroke="black" stroke-width="1.66667" stroke-miterlimit="10" stroke-linecap="round" stroke-linejoin="round"/>
<path d="M137.695 105.817C144.761 104.832 153.515 112.211 156.289 121.363C159.058 130.512 158.297 145.727 143.312 145.727C128.328 145.727 125 141.699 122.383 133.82C119.761 125.942 122.898 107.879 137.695 105.817Z" fill="#FEFEFE"/>
<path d="M137.695 105.817C144.762 104.832 153.516 112.211 156.289 121.364C159.059 130.512 158.297 145.727 143.313 145.727C131.707 146.461 125 141.7 122.383 133.821" stroke="black" stroke-width="1.66667" stroke-miterlimit="10" stroke-linecap="round" stroke-linejoin="round"/>
<path d="M119.856 139.684C119.856 139.684 118.918 133.047 125.684 132.543" stroke="black" stroke-width="1.66667" stroke-miterlimit="10" stroke-linecap="round" stroke-linejoin="round"/>
<path d="M130.059 124.829L129.945 125.766" stroke="black" stroke-width="1.66667" stroke-miterlimit="10" stroke-linecap="round" stroke-linejoin="round"/>
<path d="M125.496 118.641L126 119.864" stroke="black" stroke-width="1.66667" stroke-miterlimit="10" stroke-linecap="round" stroke-linejoin="round"/>
<path d="M131.168 116.899L131.293 116.11" stroke="black" stroke-width="1.66667" stroke-miterlimit="10" stroke-linecap="round" stroke-linejoin="round"/>
<path d="M173.039 94.9771C173.039 94.9771 203.266 60.3247 245.633 55.4927" stroke="black" stroke-width="1.66667" stroke-miterlimit="10" stroke-linecap="round" stroke-linejoin="round"/>
<path d="M178.898 100.629C178.898 100.629 209.449 68.4028 255.195 65.5669" stroke="black" stroke-width="1.66667" stroke-miterlimit="10" stroke-linecap="round" stroke-linejoin="round"/>
<path d="M182.188 104.743C182.188 104.743 221.672 74.3052 262.289 79.3481" stroke="black" stroke-width="1.66667" stroke-miterlimit="10" stroke-linecap="round" stroke-linejoin="round"/>
<path d="M115.637 117.805C115.637 117.805 73.9297 113.731 38.1523 136.778" stroke="black" stroke-width="1.66667" stroke-miterlimit="10" stroke-linecap="round" stroke-linejoin="round"/>
<path d="M113.973 125.153C113.973 125.153 73.2696 122.876 35.875 149.329" stroke="black" stroke-width="1.66667" stroke-miterlimit="10" stroke-linecap="round" stroke-linejoin="round"/>
<path d="M113.516 129.895C113.516 129.895 66.7305 134.325 37.4453 162.786" stroke="black" stroke-width="1.66667" stroke-miterlimit="10" stroke-linecap="round" stroke-linejoin="round"/>
<path d="M129.731 46.5591C129.731 46.5591 117.93 25.1255 120.731 4.88721" stroke="black" stroke-width="1.66667" stroke-miterlimit="10" stroke-linecap="round" stroke-linejoin="round"/>
<path d="M129.5 1.48475C130.028 0.699594 123.555 25.8324 133.66 44.4418" stroke="black" stroke-width="1.66667" stroke-miterlimit="10" stroke-linecap="round" stroke-linejoin="round"/>
<path d="M140.696 5.11377C140.696 5.11377 132.809 22.4341 137.215 44.063" stroke="black" stroke-width="1.66667" stroke-miterlimit="10" stroke-linecap="round" stroke-linejoin="round"/>
<path d="M97.8164 60.2115C97.8164 60.2115 91.0039 36.7114 74.7109 24.3833" stroke="black" stroke-width="1.66667" stroke-miterlimit="10" stroke-linecap="round" stroke-linejoin="round"/>
<path d="M66.1053 28.18C65.1756 28.0003 87.5233 41.1918 93.5389 61.4965" stroke="black" stroke-width="1.66667" stroke-miterlimit="10" stroke-linecap="round" stroke-linejoin="round"/>
<path d="M60.7539 38.6606C60.7539 38.6606 78.5781 45.3247 90.7539 63.7427" stroke="black" stroke-width="1.66667" stroke-miterlimit="10" stroke-linecap="round" stroke-linejoin="round"/>
<path d="M152.864 112.414C157.535 110.836 151.703 101.875 153.492 100.7C157.102 98.3324 155.86 105 159.43 103.27C162.371 101.848 160.942 90.9145 157.438 89.6684C153.934 88.4223 129.789 92.7465 131.274 102.946C131.817 106.664 137.27 111.871 139.989 111.473C142.731 111.067 140.086 105.461 143.133 105.258C146.176 105.055 148.18 113.997 152.864 112.414Z" fill="#DB121A" stroke="black" stroke-width="1.66667" stroke-miterlimit="10" stroke-linecap="round" stroke-linejoin="round"/>
<path d="M144.988 95.0276C144.746 96.9299 156.066 95.9104 155.637 93.2776C155.199 90.6487 145.246 92.9963 144.988 95.0276Z" fill="white"/>
</svg>
