<svg xmlns="http://www.w3.org/2000/svg">
    <symbol id="home" viewBox="0 0 18 18" fill="none">
        <path d="M0 9.18351C0 7.12394 5.36442e-08 6.09415 0.46728 5.24047C0.93456 4.38679 1.78825 3.85696 3.49563 2.79732L5.29563 1.68018C7.10045 0.560061 8.00289 0 9 0C9.99711 0 10.8995 0.560061 12.7044 1.68018L14.5044 2.79731C16.2118 3.85696 17.0654 4.38679 17.5327 5.24047C18 6.09415 18 7.12394 18 9.18351V10.5525C18 14.0632 18 15.8187 16.9456 16.9093C15.8912 18 14.1941 18 10.8 18H7.2C3.80588 18 2.10883 18 1.05441 16.9093C1.07288e-07 15.8187 0 14.0632 0 10.5525V9.18351Z"
              fill="currentColor"/>
        <path d="M6.3 13.7251C5.92721 13.7251 5.625 14.0273 5.625 14.4001C5.625 14.7729 5.92721 15.0751 6.3 15.0751H11.7C12.0728 15.0751 12.375 14.7729 12.375 14.4001C12.375 14.0273 12.0728 13.7251 11.7 13.7251H6.3Z"
              fill="black"/>
    </symbol>
    <symbol id="store" viewBox="0 0 18 18" fill="none">
        <path d="M1.06754 1.49C0.892882 1.81495 0.806979 2.2158 0.635172 3.01751L0.0583155 5.70932C-0.306937 7.41374 1.08992 9.00392 2.95236 9.00392C4.46863 9.00392 5.7382 7.93164 5.88907 6.52358L5.95565 5.9022C5.7983 7.56671 7.20406 9.00392 8.99979 9.00392C10.8077 9.00392 12.2204 7.54708 12.0405 5.86819L12.1109 6.52358C12.2618 7.93164 13.5313 9.00392 15.0477 9.00392C16.9101 9.00392 18.3069 7.41374 17.9417 5.70932L17.3648 3.01751C17.193 2.21582 17.1071 1.81495 16.9324 1.49C16.5644 0.805301 15.9022 0.298642 15.1106 0.0961168C14.7349 1.34169e-08 14.2969 0 13.4209 0H11.4117H4.57912C3.70309 0 3.26506 1.34169e-08 2.88939 0.0961168C2.0978 0.298642 1.43558 0.805301 1.06754 1.49Z"
              fill="currentColor" />
        <path d="M15.0475 10.3545C15.8359 10.3545 16.5683 10.1632 17.2004 9.83127V10.8047C17.2004 14.2002 17.2004 15.898 16.0701 16.9529C15.1602 17.8021 13.8041 17.9677 11.4118 18V14.8564C11.4118 14.0149 11.4118 13.5942 11.2179 13.2808C11.0909 13.0755 10.9082 12.9049 10.6882 12.7864C10.3524 12.6055 9.90155 12.6055 8.99988 12.6055C8.0982 12.6055 7.64736 12.6055 7.31153 12.7864C7.09156 12.9049 6.90884 13.0755 6.78183 13.2808C6.58795 13.5942 6.58795 14.0149 6.58795 14.8564V18C4.19573 17.9677 2.83948 17.8021 1.92961 16.9529C0.799316 15.898 0.799316 14.2002 0.799316 10.8047V9.83127C1.43147 10.1632 2.16388 10.3545 2.95227 10.3545C4.10717 10.3545 5.16604 9.93706 5.95539 9.24872C6.75358 9.93319 7.81948 10.3545 8.99968 10.3545C10.18 10.3545 11.246 9.9331 12.0442 9.24854C12.8336 9.93697 13.8925 10.3545 15.0475 10.3545Z"
              fill="currentColor" />
    </symbol>
    <symbol id="friends" viewBox="0 0 27 18" fill="none">
        <path fill-rule="evenodd" clip-rule="evenodd"
              d="M13.4998 1.68763C11.6408 1.68763 11.4555 1.875 10.4934 1.875C9.69174 1.875 7.28661 0 6.08407 0C4.88153 0 3.47857 0.675 3.47857 2.625V4.875C3.48099 5.46563 3.70557 7.27608 4.58455 6.79224C3.54536 7.96584 3.44038 9.33432 3.45466 10.6591C3.17477 10.7364 2.8892 10.8235 2.61206 10.914C1.75325 11.1947 0.842441 11.5525 0.430984 11.8064C-0.00597673 12.0761 -0.131432 12.6332 0.150769 13.0507C0.432968 13.4683 1.01596 13.5882 1.45291 13.3186C1.64909 13.1975 2.35865 12.8992 3.22148 12.6173C3.31682 12.5861 3.41235 12.5557 3.50737 12.5263C3.56548 13.0469 3.70968 13.5221 3.92404 13.955L3.89443 13.9699C3.37991 14.2297 2.90249 14.528 2.59807 14.7182C2.54539 14.7511 2.4979 14.7808 2.4563 14.8064C2.01933 15.0761 1.89388 15.6332 2.17608 16.0507C2.45828 16.4683 3.04128 16.5882 3.47824 16.3186C3.52988 16.2866 3.58491 16.2523 3.64299 16.2161C3.95107 16.024 4.34499 15.7782 4.77447 15.5614C4.87517 15.5105 4.97208 15.4644 5.06478 15.4229C7.23766 17.3698 11.1387 18 13.4998 18C15.8608 18 19.7619 17.3698 21.9347 15.4229C22.0274 15.4644 22.1242 15.5105 22.225 15.5614C22.6544 15.7782 23.0484 16.024 23.3564 16.2161C23.4146 16.2523 23.4696 16.2866 23.5212 16.3186C23.9582 16.5882 24.5411 16.4683 24.8234 16.0507C25.1056 15.6332 24.9801 15.0761 24.5431 14.8064C24.5016 14.7808 24.4541 14.7511 24.4014 14.7182C24.097 14.528 23.6195 14.2297 23.105 13.9699L23.0755 13.955C23.2899 13.522 23.434 13.0469 23.4922 12.5262C23.5874 12.5556 23.683 12.586 23.7785 12.6173C24.6413 12.8992 25.351 13.1975 25.5471 13.3186C25.984 13.5882 26.5671 13.4683 26.8492 13.0507C27.1314 12.6332 27.006 12.0761 26.5691 11.8064C26.1576 11.5525 25.2467 11.1947 24.3879 10.914C24.1106 10.8234 23.8249 10.7364 23.5449 10.659C23.5591 9.3342 23.4541 7.96584 22.415 6.79224C23.294 7.27608 23.5185 5.46563 23.521 4.875V2.62513C23.521 0.675132 22.118 0.000132179 20.9154 0.000132179C19.7129 0.000132179 17.3078 1.875 16.5061 1.875C15.5441 1.875 15.3588 1.68763 13.4998 1.68763ZM12.6514 12.7205C12.9058 12.6377 13.2061 12.6 13.4998 12.6C13.7935 12.6 14.0938 12.6377 14.3482 12.7205C14.473 12.761 14.6257 12.8251 14.7601 12.9286C14.8951 13.0324 15.0695 13.2247 15.0695 13.5C15.0695 13.7753 14.8951 13.9676 14.7601 14.0714C14.6257 14.1749 14.473 14.239 14.3482 14.2795C14.0938 14.3623 13.7935 14.4 13.4998 14.4C13.2061 14.4 12.9058 14.3623 12.6514 14.2795C12.5266 14.239 12.3738 14.1749 12.2394 14.0714C12.1044 13.9676 11.9301 13.7753 11.9301 13.5C11.9301 13.2247 12.1044 13.0324 12.2394 12.9286C12.3738 12.8251 12.5266 12.761 12.6514 12.7205ZM16.2248 9.0006C16.3962 8.72652 16.7346 8.4 17.242 8.4C17.7495 8.4 18.0878 8.72652 18.2591 9.0006C18.4378 9.28644 18.5229 9.63288 18.5229 9.975C18.5229 10.3171 18.4378 10.6636 18.2591 10.9494C18.0878 11.2235 17.7495 11.55 17.242 11.55C16.7346 11.55 16.3962 11.2235 16.2248 10.9494C16.0461 10.6636 15.9611 10.3171 15.9611 9.975C15.9611 9.63288 16.0461 9.28644 16.2248 9.0006ZM8.74044 9.0006C8.91176 8.72652 9.25008 8.4 9.75755 8.4C10.265 8.4 10.6033 8.72652 10.7747 9.0006C10.9534 9.28644 11.0385 9.63288 11.0385 9.975C11.0385 10.3171 10.9534 10.6636 10.7747 10.9494C10.6033 11.2235 10.265 11.55 9.75755 11.55C9.25008 11.55 8.91176 11.2235 8.74044 10.9494C8.56174 10.6636 8.47664 10.3171 8.47664 9.975C8.47664 9.63288 8.56174 9.28644 8.74044 9.0006Z"
              fill="currentColor"/>
    </symbol>
    <symbol id="rewards" viewBox="0 0 18 18" fill="none" xmlns="http://www.w3.org/2000/svg">
        <path fill-rule="evenodd" clip-rule="evenodd"
              d="M18 9C18 13.9705 13.9705 18 9 18C4.02943 18 0 13.9705 0 9C0 4.02943 4.02943 0 9 0C13.9705 0 18 4.02943 18 9Z"
              fill="currentColor" />
        <path d="M9.675 3.60005C9.675 3.22726 9.37278 2.92505 9 2.92505C8.62722 2.92505 8.325 3.22726 8.325 3.60005V3.88511C6.85761 4.14785 5.625 5.2503 5.625 6.75005C5.625 8.47553 7.25652 9.67505 9 9.67505C10.2389 9.67505 11.025 10.4902 11.025 11.25C11.025 12.0099 10.2389 12.825 9 12.825C7.76115 12.825 6.975 12.0099 6.975 11.25C6.975 10.8773 6.67279 10.575 6.3 10.575C5.92721 10.575 5.625 10.8773 5.625 11.25C5.625 12.7498 6.85761 13.8522 8.325 14.115V14.4C8.325 14.7728 8.62722 15.075 9 15.075C9.37278 15.075 9.675 14.7728 9.675 14.4V14.115C11.1424 13.8522 12.375 12.7498 12.375 11.25C12.375 9.52457 10.7435 8.32505 9 8.32505C7.76115 8.32505 6.975 7.50992 6.975 6.75005C6.975 5.99021 7.76115 5.17505 9 5.17505C10.2389 5.17505 11.025 5.99021 11.025 6.75005C11.025 7.12284 11.3272 7.42505 11.7 7.42505C12.0728 7.42505 12.375 7.12284 12.375 6.75005C12.375 5.2503 11.1424 4.14785 9.675 3.88511V3.60005Z"
              fill="black"/>
    </symbol>
    <symbol id="question" viewBox="0 0 26 24" fill="none" >
        <rect x="0.5" width="25" height="24" rx="12" fill="white" fill-opacity="0.1"/>
        <path d="M10.1113 9.91797C10.1406 8.47656 11.1602 7.46875 12.959 7.46875C14.6348 7.46875 15.7422 8.40039 15.7422 9.73633C15.7422 10.6211 15.3145 11.2363 14.4883 11.7227C13.709 12.1738 13.4922 12.4609 13.4922 13.0352V13.3457H11.9395L11.9277 13.0059C11.8516 12.0859 12.1738 11.5586 12.9824 11.084C13.7383 10.6328 13.9668 10.3457 13.9668 9.78906C13.9668 9.23242 13.5215 8.82812 12.8535 8.82812C12.1797 8.82812 11.7344 9.25586 11.6992 9.91797H10.1113ZM12.7363 16.1465C12.209 16.1465 11.7812 15.7422 11.7812 15.2266C11.7812 14.7109 12.209 14.3066 12.7363 14.3066C13.2695 14.3066 13.6973 14.7109 13.6973 15.2266C13.6973 15.7422 13.2695 16.1465 12.7363 16.1465Z" fill="white"/>
    </symbol>
</svg>
