<svg width="204" height="225" viewBox="0 0 204 225" fill="none" xmlns="http://www.w3.org/2000/svg">
<path d="M204 -9.76324e-05C203.949 0.328402 204.23 93.9336 204 94.1261C195.617 101.23 176.29 112.943 158.923 112.943C122.726 112.943 93.3811 82.0501 93.3811 43.935C93.3811 27.2636 98.9945 11.9701 108.348 0.0427899M49.1239 152.961L112.512 109.247L48.8466 176.861L49.1239 152.961ZM151.543 125.277L138.807 224.365L153.202 215.621L151.543 125.277ZM128.011 121.195L98.3922 173.072L115.278 163.454L128.011 121.195ZM180.329 123.818L184.757 191.432L194.998 178.612L180.329 123.818ZM88.8519 90.3976L57.8079 122.467L40.7242 123.593L88.8519 90.3976ZM80.2295 66.8259L0.153809 80.3145L19.9043 89.5892L80.2295 66.8259ZM81.0285 37.5976L42.3258 46.0273L20.9711 38.4426L81.0285 37.5976ZM83.4318 15.9577L25.2438 2.46639L39.3904 -0.342285L83.4318 15.9577Z" fill="#FFEE57"/>
</svg>
